inDegrees=yes
name=ik_S55_A10_T03
DataType=double
version=3
OpenSimVersion=4.3-2021-08-27-4bc7ad9
endheader
time	pelvis_tilt	pelvis_list	pelvis_rotation	pelvis_tx	pelvis_ty	pelvis_tz	hip_flexion_r	hip_adduction_r	hip_rotation_r	knee_angle_r	knee_angle_r_beta	ankle_angle_r	subtalar_angle_r	mtp_angle_r	hip_flexion_l	hip_adduction_l	hip_rotation_l	knee_angle_l	knee_angle_l_beta	ankle_angle_l	subtalar_angle_l	mtp_angle_l	lumbar_extension	lumbar_bending	lumbar_rotation	arm_flex_r	arm_add_r	arm_rot_r	elbow_flex_r	pro_sup_r	wrist_flex_r	wrist_dev_r	arm_flex_l	arm_add_l	arm_rot_l	elbow_flex_l	pro_sup_l	wrist_flex_l	wrist_dev_l
4.919999999999983	1.95141517387927	2.434928247237247	29.79692717655868	0	0.9399999999999999	0	44.06960894191486	-10.02181842508265	-10.02584507981718	54.06869241987697	0.9436767049749535	0	0	0	44.06960894191486	-10.02181842508265	-10.02584507981718	54.06869241987697	0.9436767049749535	0	0	0	3.027320530349361	1.602226916594835	3.077159524895487	79.29475060317226	-15.13119619443388	4.730945474822035	77.35970339700656	131.8250280929929	0	0	71.02123834453906	-20.69308876477276	-5.93280824553909	74.92412245181062	118.1776496024046	0	0
4.939999999999983	2.302129221855885	2.665875944705737	30.06095612562876	0	0.9399999999999999	0	44.09026370414551	-10.02070500488228	-10.024852173568	54.0870252548188	0.9439966733059131	0	0	0	44.09026370414551	-10.02070500488228	-10.024852173568	54.0870252548188	0.9439966733059131	0	0	0	3.450089514641561	1.624561492079993	2.870695182399313	82.11477450103843	-15.2607553253081	7.967892707896651	73.70894832044391	130.005573006367	0	0	72.64772996480664	-21.50737937565769	-3.771670401604729	77.78844856977908	119.5759598160054	0	0
4.959999999999982	2.495329720354025	2.761310127825884	30.25147091905027	0	0.9399999999999999	0	44.10708683871194	-10.019804284359	-10.02404628950193	54.1018367768001	0.9442551831317182	0	0	0	44.10708683871194	-10.019804284359	-10.02404628950193	54.1018367768001	0.9442551831317182	0	0	0	3.677146264414437	1.602861534899624	2.65291480957386	85.13692591226858	-15.04086580664548	10.18839288087648	80.54008366633005	131.7154130992603	0	0	74.34486371745989	-22.61654795983963	-2.659667818786418	81.22814101224638	119.8716259313248	0	0
4.979999999999982	2.550181792891683	2.782992255676233	30.3042821051925	0	0.9399999999999999	0	44.12262186427605	-10.01901544184919	-10.0233242866608	54.1157472206713	0.9444979661776846	0	0	0	44.12262186427605	-10.01901544184919	-10.0233242866608	54.1157472206713	0.9444979661776846	0	0	0	3.737617712655854	1.591529333608927	2.589572331641028	88.56854006734982	-15.20835654333277	12.0984863291584	77.05025637779289	129.9462212046295	0	0	76.53022163906147	-23.20452968233109	-1.89331604557754	84.91009937032356	120.4808082091644	0	0
4.999999999999981	2.711947312544222	2.951038473755913	30.30999657422111	0	0.9399999999999999	0	44.13303257641594	-10.01849455434516	-10.0228443967666	54.12505094604136	0.9446603468180933	0	0	0	44.13303257641594	-10.01849455434516	-10.0228443967666	54.12505094604136	0.9446603468180933	0	0	0	3.952221532855862	1.657869598879353	2.632178090073669	91.43103640689831	-14.89577471749972	13.10630870656292	82.10060292697604	133.2168088569771	0	0	78.80464127782815	-23.16104835315671	-0.6505994402454536	86.43551890150785	120.9038598684429	0	0
5.019999999999981	3.315418530211559	3.349553188852013	30.37900561726667	0	0.9399999999999999	0	44.14308499412132	-10.01800758404857	-10.02238911902395	54.13409231183235	0.9448181484200233	0	0	0	44.14308499412132	-10.01800758404857	-10.02238911902395	54.13409231183235	0.9448181484200233	0	0	0	4.67067057649709	1.702079589394928	2.661635777559111	89.83583677652712	-14.78859976030684	13.09608818385991	87.14385708444219	136.8032095137648	0	0	77.30808658275342	-22.7508945032849	-0.603718516116673	90.28616350030869	123.3506014533532	0	0
5.03999999999998	3.317040061138385	3.360492506867582	30.33668987462672	0	0.9399999999999999	0	44.15151614056717	-10.01759207457721	-10.02200387577975	54.14160884421602	0.9449493366584512	0	0	0	44.15151614056717	-10.01759207457721	-10.02200387577975	54.14160884421602	0.9449493366584512	0	0	0	4.673880491579679	1.713548453363627	2.704095041668667	92.96303215265448	-14.52015385064917	13.51655541495547	84.05203242093259	135.7334017564692	0	0	80.17989705237468	-22.29788714586304	1.409583707151111	89.14305824496545	124.3814227958187	0	0
5.05999999999998	3.895010573730902	3.60546513619044	30.48322587674855	0	0.9399999999999999	0	44.15905787629189	-10.01722869411071	-10.02166369118727	54.14837745417413	0.9450674711880035	0	0	0	44.15905787629189	-10.01722869411071	-10.02166369118727	54.14837745417413	0.9450674711880035	0	0	0	5.297297127267305	1.629891096379796	2.73086316586682	94.1392106699427	-13.8682495095046	14.23303472274892	82.25126835776675	134.4762677781671	0	0	81.47953717099365	-21.50435356604811	3.519310493932539	89.05122109422663	125.1206519266379	0	0
5.07999999999998	4.087239496334285	3.689547249262899	30.71749451139546	0	0.9399999999999999	0	44.15988431157261	-10.01716997001547	-10.0216161870868	54.1489399296603	0.9450772882371989	0	0	0	44.15988431157261	-10.01716997001547	-10.0216161870868	54.1489399296603	0.9450772882371989	0	0	0	5.519520381170184	1.574905710068671	2.432611983350584	95.60475353906908	-12.69764222243574	16.18313012627356	78.65262616289975	129.963799550795	0	0	82.88428588586508	-20.81390547758344	5.200045646548376	88.52162495250023	125.5046907378263	0	0
5.099999999999979	4.241985920009606	3.736691405295931	30.03834337039618	0	0.9399999999999999	0	44.16087206839675	-10.01709976522658	-10.02155937956119	54.149610809404	0.9450889972976114	0	0	0	44.16087206839675	-10.01709976522658	-10.02155937956119	54.149610809404	0.9450889972976114	0	0	0	5.6486574437019	1.595091778775058	2.923096896575651	96.52687869537037	-11.48997414953826	18.16197717581839	75.54795172441068	129.9690065121108	0	0	84.87902633111253	-19.13685623868224	8.237600361730246	86.69940438240707	125.1419278048571	0	0
5.119999999999979	4.337554975840969	3.762102519326715	29.62510722599918	0	0.9399999999999999	0	44.16145222396563	-10.01705859077404	-10.02152604668345	54.15000545640445	0.9450958851871524	0	0	0	44.16145222396563	-10.01705859077404	-10.02152604668345	54.15000545640445	0.9450958851871524	0	0	0	5.726705973103384	1.607469469665241	3.21611881760236	97.17694366876508	-10.76575630565651	19.25594959875752	72.83910010624325	130.0623264651502	0	0	85.40045844008525	-18.13946765318931	9.535871099008261	85.75851309779587	125.2245368925597	0	0
5.139999999999978	4.479243454542263	3.797527155511773	29.31365001576918	0	0.9399999999999999	0	44.16189367517419	-10.01702720964782	-10.02150064890171	54.15030488499481	0.9451011112019287	0	0	0	44.16189367517419	-10.01702720964782	-10.02150064890171	54.15030488499481	0.9451011112019287	0	0	0	5.861344449099884	1.583915912344457	3.340689062730959	97.43117400732739	-10.67738031244727	19.05624564179727	70.61435842525665	128.8115587013234	0	0	85.53162878520708	-17.21725583625279	10.2204716940235	84.57922769948505	124.5068118281901	0	0
5.159999999999978	4.464505775322278	3.722831029524578	29.02331911630385	0	0.9399999999999999	0	44.1623182038566	-10.01699719719454	-10.02147630864765	54.1505940445921	0.9451061579889651	0	0	0	44.1623182038566	-10.01699719719454	-10.02147630864765	54.1505940445921	0.9451061579889651	0	0	0	5.800016125945454	1.5525608633436	3.542685441568153	97.41606566723502	-11.04546070383666	18.48033586191724	69.09426315769944	125.8251068233977	0	0	85.68884439993479	-16.47397029605516	10.12199319524	83.64460987763596	124.014619711837	0	0
5.179999999999978	4.421386439457467	3.629297860781332	28.90518932807662	0	0.9399999999999999	0	44.16288404922693	-10.01695721883466	-10.02144387223118	54.15097927379965	0.9451128815070118	0	0	0	44.16288404922693	-10.01695721883466	-10.02144387223118	54.15097927379965	0.9451128815070118	0	0	0	5.713071798669248	1.509011715955423	3.638788948948524	96.71694852091822	-11.40300860580115	17.6728161815091	68.25121669215004	122.18729712352	0	0	85.49890521443155	-16.03186783497252	9.529827125215784	82.77397830375178	122.6463217619053	0	0
